<?xml version="1.0" encoding="iso-8859-1"?>
<!-- Generator: Adobe Illustrator 18.0.0, SVG Export Plug-In . SVG Version: 6.00 Build 0)  -->
<!DOCTYPE svg PUBLIC "-//W3C//DTD SVG 1.1//EN" "http://www.w3.org/Graphics/SVG/1.1/DTD/svg11.dtd">
<svg version="1.1" id="Capa_1" xmlns="http://www.w3.org/2000/svg" xmlns:xlink="http://www.w3.org/1999/xlink" x="0px" y="0px"
	 viewBox="0 0 249.064 249.064" style="enable-background:new 0 0 249.064 249.064;" xml:space="preserve">
<g>
	<path d="M203.344,89.063c-5.564-15.768-38.449-23.005-69.195-23.005c-32.579,0-67.56,8.128-69.896,25.917
		C32.827,94.402,0,103.624,0,123.06c0,12.546,14.653,22.495,40.57,27.83c-0.003,0.117-0.004,0.234-0.004,0.352
		c0,21.825,42.58,31.766,82.143,31.766c38.674,0,80.231-9.498,82.078-30.312c27.884-5.767,44.277-17.365,44.277-31.673
		C249.064,106.489,232.098,94.728,203.344,89.063z M194.851,139.259c-2.449,0.388-4.549,1.96-5.608,4.201
		c-1.061,2.241-0.944,4.861,0.309,7c0.191,0.325,0.3,0.61,0.3,0.781c0,0.913-2.968,5.568-16.681,10.026
		c-13.369,4.346-31.29,6.739-50.462,6.739c-19.172,0-37.093-2.394-50.462-6.739c-13.712-4.458-16.681-9.113-16.681-10.026
		c0-0.244,0.207-0.76,0.787-1.478c1.69-2.089,2.134-4.922,1.163-7.428c-0.971-2.506-3.208-4.3-5.864-4.705
		C24.023,133.426,15,125.364,15,123.06c0-0.853,2.401-4.905,14.148-9.156c11.509-4.165,27.39-6.813,44.718-7.456
		c2.822-0.105,5.347-1.787,6.531-4.351c1.184-2.565,0.826-5.577-0.925-7.793c-0.152-0.193-0.243-0.339-0.296-0.435
		c1.639-3.697,20.211-12.81,54.972-12.81c34.929,0,53.51,9.2,54.992,12.863c-0.412,1.973-0.013,4.031,1.112,5.71
		c1.158,1.728,2.982,2.897,5.037,3.228c26.451,4.261,38.774,13.357,38.774,18.164C234.064,125.877,221.602,135.031,194.851,139.259z
		"/>
	<path d="M140.936,101.278c-1.987-2.65-5.748-3.188-8.399-1.2l-52.408,39.307c-2.651,1.988-3.188,5.749-1.2,8.399
		c1.179,1.572,2.98,2.4,4.805,2.4c1.252,0,2.516-0.391,3.595-1.2l52.408-39.307C142.388,107.689,142.925,103.929,140.936,101.278z"
		/>
	<path d="M169.137,100.078l-52.408,39.307c-2.651,1.988-3.188,5.749-1.2,8.399c1.179,1.572,2.98,2.4,4.805,2.4
		c1.252,0,2.516-0.391,3.595-1.2l52.408-39.307c2.651-1.988,3.188-5.749,1.2-8.399C175.549,98.628,171.788,98.09,169.137,100.078z"
		/>
</g>
<g>
</g>
<g>
</g>
<g>
</g>
<g>
</g>
<g>
</g>
<g>
</g>
<g>
</g>
<g>
</g>
<g>
</g>
<g>
</g>
<g>
</g>
<g>
</g>
<g>
</g>
<g>
</g>
<g>
</g>
</svg>
