<?xml version="1.0" encoding="iso-8859-1"?>
<!-- Generator: Adobe Illustrator 18.0.0, SVG Export Plug-In . SVG Version: 6.00 Build 0)  -->
<!DOCTYPE svg PUBLIC "-//W3C//DTD SVG 1.1//EN" "http://www.w3.org/Graphics/SVG/1.1/DTD/svg11.dtd">
<svg version="1.1" id="Capa_1" xmlns="http://www.w3.org/2000/svg" xmlns:xlink="http://www.w3.org/1999/xlink" x="0px" y="0px"
	 viewBox="0 0 232.239 232.239" style="enable-background:new 0 0 232.239 232.239;" xml:space="preserve">
<g>
	<path d="M65.637,191.559c0.18-1.049,1.503-2.456,3.632-3.859c2.767-1.824,3.53-5.545,1.707-8.312
		c-1.823-2.767-5.544-3.532-8.313-1.707c-5.104,3.365-8.084,7.354-8.854,11.853c-1.232,7.204,3.342,13.234,7.377,18.555
		c2.436,3.21,5.465,7.205,5.11,9.279c-0.18,1.049-1.504,2.456-3.632,3.859c-2.767,1.824-3.531,5.545-1.708,8.312
		c1.153,1.749,3.065,2.698,5.016,2.698c1.133,0,2.279-0.321,3.296-0.991c5.106-3.366,8.086-7.354,8.856-11.854
		c1.233-7.204-3.342-13.235-7.377-18.556C68.312,197.628,65.282,193.634,65.637,191.559z"/>
	<path d="M99.072,191.559c0.18-1.049,1.503-2.456,3.632-3.859c2.767-1.824,3.53-5.545,1.707-8.312
		c-1.823-2.767-5.544-3.532-8.313-1.707c-5.104,3.365-8.084,7.354-8.854,11.853c-1.232,7.204,3.342,13.234,7.377,18.555
		c2.436,3.21,5.465,7.205,5.11,9.279c-0.18,1.049-1.504,2.456-3.632,3.859c-2.767,1.824-3.531,5.545-1.708,8.312
		c1.153,1.749,3.065,2.698,5.016,2.698c1.133,0,2.279-0.321,3.296-0.991c5.106-3.366,8.086-7.354,8.856-11.854
		c1.233-7.204-3.342-13.235-7.377-18.556C101.747,197.628,98.718,193.634,99.072,191.559z"/>
	<path d="M132.506,191.559c0.18-1.049,1.503-2.456,3.632-3.859c2.767-1.824,3.53-5.545,1.707-8.312
		c-1.823-2.767-5.543-3.532-8.313-1.707c-5.104,3.365-8.084,7.354-8.854,11.853c-1.232,7.204,3.342,13.234,7.377,18.555
		c2.436,3.21,5.465,7.205,5.11,9.279c-0.18,1.049-1.504,2.456-3.632,3.859c-2.767,1.824-3.531,5.545-1.708,8.312
		c1.153,1.749,3.065,2.698,5.016,2.698c1.133,0,2.279-0.321,3.296-0.991c5.106-3.366,8.086-7.354,8.856-11.854
		c1.233-7.204-3.342-13.235-7.377-18.556C135.181,197.628,132.152,193.634,132.506,191.559z"/>
	<path d="M165.942,191.559c0.18-1.049,1.503-2.456,3.632-3.859c2.767-1.824,3.53-5.545,1.707-8.312
		c-1.823-2.767-5.544-3.532-8.313-1.707c-5.104,3.365-8.084,7.354-8.854,11.853c-1.232,7.204,3.342,13.234,7.377,18.555
		c2.436,3.21,5.465,7.205,5.11,9.279c-0.18,1.049-1.504,2.456-3.632,3.859c-2.767,1.824-3.531,5.545-1.708,8.312
		c1.153,1.749,3.065,2.698,5.016,2.698c1.133,0,2.279-0.321,3.296-0.991c5.106-3.366,8.086-7.354,8.856-11.854
		c1.233-7.204-3.342-13.235-7.377-18.556C168.616,197.628,165.587,193.634,165.942,191.559z"/>
	<path d="M171.57,38.721c-1.193,0-2.388,0.036-3.58,0.108C158.194,15.685,134.69,0,108.767,0C73.432,0,44.685,28.177,44.685,62.81
		c0,0.122,0,0.243,0.001,0.365c-23.7,1.782-42.431,21.277-42.431,44.984c0,24.876,20.624,45.113,45.975,45.113h123.34
		c32.21,0,58.414-25.694,58.414-57.275C229.984,64.415,203.78,38.721,171.57,38.721z M171.57,138.273H48.23
		c-17.079,0-30.975-13.509-30.975-30.113c0-16.606,13.896-30.117,30.975-30.117c1.057,0,2.228,0.08,3.686,0.25
		c2.313,0.273,4.625-0.549,6.249-2.222c1.625-1.671,2.38-4.003,2.044-6.31c-0.348-2.38-0.524-4.718-0.524-6.951
		c0-26.363,22.019-47.81,49.082-47.81c21.542,0,40.881,14.036,47.029,34.132c1.103,3.602,4.708,5.824,8.418,5.201
		c2.412-0.406,4.887-0.612,7.355-0.612c23.938,0,43.414,18.965,43.414,42.277C214.984,119.309,195.508,138.273,171.57,138.273z"/>
</g>
<g>
</g>
<g>
</g>
<g>
</g>
<g>
</g>
<g>
</g>
<g>
</g>
<g>
</g>
<g>
</g>
<g>
</g>
<g>
</g>
<g>
</g>
<g>
</g>
<g>
</g>
<g>
</g>
<g>
</g>
</svg>
