<?xml version="1.0" encoding="iso-8859-1"?>
<!-- Generator: Adobe Illustrator 18.0.0, SVG Export Plug-In . SVG Version: 6.00 Build 0)  -->
<!DOCTYPE svg PUBLIC "-//W3C//DTD SVG 1.1//EN" "http://www.w3.org/Graphics/SVG/1.1/DTD/svg11.dtd">
<svg version="1.1" id="Capa_1" xmlns="http://www.w3.org/2000/svg" xmlns:xlink="http://www.w3.org/1999/xlink" x="0px" y="0px"
	 viewBox="0 0 219.781 219.781" style="enable-background:new 0 0 219.781 219.781;" xml:space="preserve">
<g>
	<path d="M110.199,183.457c-4.142,0-7.5,3.358-7.5,7.5v21.324c0,4.142,3.358,7.5,7.5,7.5c4.143,0,7.5-3.358,7.5-7.5v-21.324
		C117.699,186.815,114.342,183.457,110.199,183.457z"/>
	<path d="M110.199,36.326c4.143,0,7.5-3.358,7.5-7.5V7.5c0-4.142-3.357-7.5-7.5-7.5c-4.142,0-7.5,3.358-7.5,7.5v21.326
		C102.699,32.968,106.057,36.326,110.199,36.326z"/>
	<path d="M47.587,161.906l-15.084,15.076c-2.93,2.928-2.931,7.677-0.003,10.606c1.465,1.465,3.385,2.198,5.305,2.198
		c1.919,0,3.837-0.732,5.302-2.195l15.084-15.076c2.93-2.928,2.931-7.677,0.003-10.606C55.265,158.98,50.517,158.979,47.587,161.906
		z"/>
	<path d="M36.643,109.893c0-4.142-3.358-7.5-7.5-7.5H7.818c-4.142,0-7.5,3.358-7.5,7.5c0,4.142,3.358,7.5,7.5,7.5h21.324
		C33.285,117.393,36.643,114.035,36.643,109.893z"/>
	<path d="M47.585,57.868c1.464,1.464,3.384,2.197,5.303,2.197c1.919,0,3.839-0.732,5.303-2.197c2.929-2.929,2.929-7.678,0-10.606
		L43.116,32.185c-2.929-2.929-7.678-2.929-10.606,0c-2.929,2.929-2.929,7.678,0,10.606L47.585,57.868z"/>
	<path d="M161.084,51.516c-9.107,0-17.733,2.1-25.423,5.836c-7.896-3.826-16.612-5.836-25.454-5.836
		c-32.187,0-58.373,26.188-58.373,58.377c0,32.188,26.186,58.375,58.373,58.375c8.843,0,17.559-2.011,25.455-5.836
		c7.689,3.736,16.314,5.836,25.422,5.836c32.19,0,58.379-26.187,58.379-58.375C219.463,77.704,193.274,51.516,161.084,51.516z
		 M110.207,153.268c-23.916,0-43.373-19.458-43.373-43.375c0-23.918,19.457-43.377,43.373-43.377c3.55,0,7.067,0.452,10.479,1.299
		c-11.066,10.63-17.976,25.558-17.976,42.078c0,16.52,6.909,31.447,17.975,42.077C117.274,152.815,113.757,153.268,110.207,153.268z
		 M161.084,153.268c-23.916,0-43.373-19.458-43.373-43.375c0-23.918,19.457-43.377,43.373-43.377
		c23.919,0,43.379,19.459,43.379,43.377C204.463,133.809,185.003,153.268,161.084,153.268z"/>
</g>
<g>
</g>
<g>
</g>
<g>
</g>
<g>
</g>
<g>
</g>
<g>
</g>
<g>
</g>
<g>
</g>
<g>
</g>
<g>
</g>
<g>
</g>
<g>
</g>
<g>
</g>
<g>
</g>
<g>
</g>
</svg>
