<?xml version="1.0" encoding="iso-8859-1"?>
<!-- Generator: Adobe Illustrator 18.0.0, SVG Export Plug-In . SVG Version: 6.00 Build 0)  -->
<!DOCTYPE svg PUBLIC "-//W3C//DTD SVG 1.1//EN" "http://www.w3.org/Graphics/SVG/1.1/DTD/svg11.dtd">
<svg version="1.1" id="Capa_1" xmlns="http://www.w3.org/2000/svg" xmlns:xlink="http://www.w3.org/1999/xlink" x="0px" y="0px"
	 viewBox="0 0 252.414 252.414" style="enable-background:new 0 0 252.414 252.414;" xml:space="preserve">
<g>
	<path d="M181.658,38.723c-1.193,0-2.388,0.036-3.582,0.108C168.28,15.688,144.777,0,118.855,0
		C83.521,0,54.773,28.178,54.773,62.813c0,0.122,0,0.243,0.001,0.365C31.074,64.96,12.342,84.454,12.342,108.16
		c0,24.875,20.625,45.113,45.977,45.113h123.34c32.209,0,58.414-25.694,58.414-57.275C240.072,64.417,213.868,38.723,181.658,38.723
		z M181.658,138.273H58.318c-17.081,0-30.976-13.509-30.976-30.113c0-16.605,13.896-30.115,30.976-30.115
		c1.054,0,2.226,0.08,3.687,0.25c2.315,0.272,4.624-0.551,6.249-2.222c1.624-1.671,2.379-4.003,2.043-6.31
		c-0.347-2.379-0.523-4.718-0.523-6.951C69.773,36.449,91.792,15,118.855,15c21.54,0,40.879,14.036,47.027,34.132
		c1.102,3.599,4.7,5.831,8.412,5.202c2.42-0.406,4.897-0.611,7.363-0.611c23.938,0,43.414,18.965,43.414,42.275
		C225.072,119.309,205.597,138.273,181.658,138.273z"/>
	<path d="M122.473,221.156c-1.381-2.391-4.436-3.21-6.83-1.83l-6.218,3.59v-7.178c0-2.761-2.239-5-5-5c-2.761,0-5,2.239-5,5v7.177
		l-6.217-3.589c-2.392-1.381-5.45-0.561-6.83,1.83c-1.381,2.392-0.562,5.45,1.83,6.83l6.217,3.589l-6.217,3.589
		c-2.392,1.38-3.211,4.439-1.83,6.83c0.926,1.604,2.606,2.501,4.335,2.501c0.848,0,1.708-0.216,2.495-0.671l6.217-3.589v7.178
		c0,2.761,2.239,5,5,5c2.761,0,5-2.239,5-5v-7.179l6.218,3.59c0.788,0.455,1.647,0.671,2.495,0.671c1.728,0,3.409-0.897,4.335-2.501
		c1.381-2.392,0.562-5.45-1.83-6.83l-6.217-3.589l6.217-3.589C123.034,226.606,123.854,223.548,122.473,221.156z"/>
	<path d="M166.809,221.156c-1.38-2.391-4.437-3.21-6.83-1.83l-6.218,3.59v-7.178c0-2.761-2.239-5-5-5s-5,2.239-5,5v7.177
		l-6.217-3.589c-2.393-1.381-5.45-0.561-6.83,1.83c-1.381,2.392-0.561,5.45,1.83,6.83l6.217,3.589l-6.217,3.589
		c-2.392,1.38-3.211,4.439-1.83,6.83c0.926,1.604,2.607,2.501,4.335,2.501c0.848,0,1.707-0.216,2.495-0.671l6.217-3.589v7.178
		c0,2.761,2.239,5,5,5s5-2.239,5-5v-7.179l6.218,3.59c0.788,0.455,1.647,0.671,2.495,0.671c1.728,0,3.409-0.897,4.335-2.501
		c1.381-2.392,0.562-5.45-1.83-6.83l-6.217-3.589l6.217-3.589C167.371,226.606,168.19,223.548,166.809,221.156z"/>
	<path d="M87.256,196.219v-7.179l6.218,3.59c0.788,0.454,1.647,0.671,2.495,0.671c1.728,0,3.409-0.897,4.335-2.501
		c1.381-2.392,0.562-5.449-1.83-6.83l-6.217-3.589l6.217-3.589c2.392-1.381,3.211-4.438,1.83-6.83
		c-1.38-2.391-4.438-3.211-6.83-1.83l-6.218,3.59v-7.178c0-2.761-2.239-5-5-5c-2.761,0-5,2.239-5,5v7.177l-6.216-3.589
		c-2.392-1.38-5.45-0.561-6.83,1.83c-1.381,2.392-0.561,5.449,1.83,6.83l6.217,3.589l-6.217,3.589
		c-2.392,1.381-3.211,4.439-1.83,6.83c0.926,1.604,2.606,2.501,4.335,2.501c0.848,0,1.708-0.216,2.495-0.671l6.216-3.589v7.178
		c0,2.761,2.239,5,5,5C85.017,201.219,87.256,198.98,87.256,196.219z"/>
	<path d="M131.594,196.219v-7.178l6.217,3.589c0.788,0.454,1.647,0.671,2.495,0.671c1.728,0,3.409-0.897,4.335-2.501
		c1.381-2.392,0.562-5.449-1.83-6.83l-6.217-3.589l6.217-3.589c2.392-1.381,3.211-4.438,1.83-6.83
		c-1.381-2.391-4.438-3.211-6.83-1.83l-6.217,3.589v-7.177c0-2.761-2.239-5-5-5c-2.761,0-5,2.239-5,5v7.177l-6.217-3.589
		c-2.393-1.38-5.449-0.561-6.83,1.83c-1.381,2.392-0.562,5.449,1.83,6.83l6.217,3.589l-6.217,3.589
		c-2.392,1.381-3.211,4.439-1.83,6.83c0.926,1.604,2.606,2.501,4.335,2.501c0.848,0,1.708-0.216,2.495-0.671l6.217-3.589v7.178
		c0,2.761,2.239,5,5,5C129.355,201.219,131.594,198.98,131.594,196.219z"/>
	<path d="M188.977,169.961c-1.38-2.391-4.437-3.211-6.83-1.83l-6.218,3.59v-7.178c0-2.761-2.239-5-5-5c-2.761,0-5,2.239-5,5v7.176
		l-6.215-3.588c-2.393-1.38-5.449-0.561-6.83,1.83c-1.381,2.392-0.562,5.449,1.83,6.83l6.217,3.589l-6.217,3.589
		c-2.392,1.381-3.211,4.439-1.83,6.83c0.926,1.604,2.606,2.501,4.335,2.501c0.848,0,1.708-0.216,2.495-0.671l6.215-3.588v7.177
		c0,2.761,2.239,5,5,5c2.761,0,5-2.239,5-5v-7.179l6.218,3.59c0.788,0.454,1.647,0.671,2.495,0.671c1.728,0,3.409-0.897,4.335-2.501
		c1.381-2.392,0.562-5.449-1.83-6.83l-6.217-3.589l6.217-3.589C189.539,175.41,190.358,172.353,188.977,169.961z"/>
</g>
<g>
</g>
<g>
</g>
<g>
</g>
<g>
</g>
<g>
</g>
<g>
</g>
<g>
</g>
<g>
</g>
<g>
</g>
<g>
</g>
<g>
</g>
<g>
</g>
<g>
</g>
<g>
</g>
<g>
</g>
</svg>
