<?xml version="1.0" encoding="iso-8859-1"?>
<!-- Generator: Adobe Illustrator 18.0.0, SVG Export Plug-In . SVG Version: 6.00 Build 0)  -->
<!DOCTYPE svg PUBLIC "-//W3C//DTD SVG 1.1//EN" "http://www.w3.org/Graphics/SVG/1.1/DTD/svg11.dtd">
<svg version="1.1" id="Capa_1" xmlns="http://www.w3.org/2000/svg" xmlns:xlink="http://www.w3.org/1999/xlink" x="0px" y="0px"
	 viewBox="0 0 210.09 210.09" style="enable-background:new 0 0 210.09 210.09;" xml:space="preserve">
<g>
	<path d="M164.241,105.045c0-4.142-3.357-7.5-7.5-7.5H18.853c-4.143,0-7.5,3.358-7.5,7.5c0,4.142,3.357,7.5,7.5,7.5h137.889
		C160.884,112.545,164.241,109.187,164.241,105.045z"/>
	<path d="M182.026,53.697H35.71c-4.142,0-7.5,3.358-7.5,7.5c0,4.142,3.358,7.5,7.5,7.5h146.316c4.143,0,7.5-3.358,7.5-7.5
		C189.526,57.055,186.169,53.697,182.026,53.697z"/>
	<path d="M166.852,141.391H69.307c-4.143,0-7.5,3.358-7.5,7.5c0,4.142,3.357,7.5,7.5,7.5h97.546c4.143,0,7.5-3.358,7.5-7.5
		C174.352,144.749,170.995,141.391,166.852,141.391z"/>
	<path d="M126.215,185.24H94.302c-4.142,0-7.5,3.358-7.5,7.5c0,4.142,3.358,7.5,7.5,7.5h31.913c4.143,0,7.5-3.358,7.5-7.5
		C133.715,188.598,130.357,185.24,126.215,185.24z"/>
	<path d="M202.59,9.85H7.5c-4.143,0-7.5,3.358-7.5,7.5s3.357,7.5,7.5,7.5h195.09c4.143,0,7.5-3.358,7.5-7.5
		S206.732,9.85,202.59,9.85z"/>
</g>
<g>
</g>
<g>
</g>
<g>
</g>
<g>
</g>
<g>
</g>
<g>
</g>
<g>
</g>
<g>
</g>
<g>
</g>
<g>
</g>
<g>
</g>
<g>
</g>
<g>
</g>
<g>
</g>
<g>
</g>
</svg>
