<?xml version="1.0" encoding="iso-8859-1"?>
<!-- Generator: Adobe Illustrator 18.0.0, SVG Export Plug-In . SVG Version: 6.00 Build 0)  -->
<!DOCTYPE svg PUBLIC "-//W3C//DTD SVG 1.1//EN" "http://www.w3.org/Graphics/SVG/1.1/DTD/svg11.dtd">
<svg version="1.1" id="Capa_1" xmlns="http://www.w3.org/2000/svg" xmlns:xlink="http://www.w3.org/1999/xlink" x="0px" y="0px"
	 viewBox="0 0 168.291 168.291" style="enable-background:new 0 0 168.291 168.291;" xml:space="preserve">
<path d="M84.141,0C73.267,0,62.652,2.065,52.592,6.138c-0.002,0.001-0.004,0.001-0.006,0.002C20.641,19.076,0,49.695,0,84.147
	c0,34.451,20.641,65.069,52.585,78.003c0.003,0.001,0.004,0.001,0.007,0.002c10.061,4.072,20.675,6.138,31.548,6.138
	c46.401,0,84.15-37.747,84.15-84.144C168.291,37.749,130.542,0,84.141,0z M15,84.147c0-27.285,15.759-51.639,40.4-62.885
	c24.645,11.247,40.406,35.601,40.406,62.885c0,27.283-15.761,51.636-40.406,62.882C30.759,135.784,15,111.431,15,84.147z
	 M84.141,153.291c-2.927,0-5.831-0.182-8.704-0.544c21.948-15.534,35.37-40.82,35.37-68.599c0-27.78-13.422-53.068-35.37-68.603
	C78.309,15.182,81.213,15,84.141,15c38.13,0,69.15,31.02,69.15,69.147C153.291,122.273,122.271,153.291,84.141,153.291z"/>
<g>
</g>
<g>
</g>
<g>
</g>
<g>
</g>
<g>
</g>
<g>
</g>
<g>
</g>
<g>
</g>
<g>
</g>
<g>
</g>
<g>
</g>
<g>
</g>
<g>
</g>
<g>
</g>
<g>
</g>
</svg>
